<?xml version="1.0" encoding="UTF-8" standalone="no"?>
<!DOCTYPE svg PUBLIC "-//W3C//DTD SVG 1.1//EN" "http://www.w3.org/Graphics/SVG/1.1/DTD/svg11.dtd">
<svg width="100%" height="100%" viewBox="0 0 414 378" version="1.1" xmlns="http://www.w3.org/2000/svg" xmlns:xlink="http://www.w3.org/1999/xlink" xml:space="preserve" xmlns:serif="http://www.serif.com/" style="fill-rule:evenodd;clip-rule:evenodd;stroke-linejoin:round;stroke-miterlimit:2;">
    <g transform="matrix(0.495663,0.0512585,-0.055335,0.535083,-999.054,-672.578)">
        <g transform="matrix(1.86209,1.40159,-1.63936,1.8689,2433.79,653.198)">
            <rect x="241.454" y="127.646" width="17.247" height="128.706" style="fill:rgb(255,0,0);"/>
        </g>
        <g transform="matrix(-1.51306,1.72491,2.01753,1.51858,2575.72,639.601)">
            <rect x="241.454" y="127.646" width="17.247" height="128.706" style="fill:rgb(255,0,0);"/>
        </g>
        <g transform="matrix(0.647829,-0.0620591,0.0642543,0.575557,1554.92,773.779)">
            <path d="M970.744,939.262L970.744,730.201C970.744,702.514 993.222,680.036 1020.91,680.036L1229.97,680.036L1229.97,730.201L1045.99,730.201C1032.15,730.201 1020.91,741.44 1020.91,755.283L1020.91,939.262L970.744,939.262ZM1714.82,680.036L1923.88,680.036C1951.56,680.036 1974.04,702.514 1974.04,730.201L1974.04,939.262L1923.88,939.262L1923.88,755.283C1923.88,741.44 1912.64,730.201 1898.79,730.201L1714.82,730.201L1714.82,680.036ZM1974.04,1424.11L1974.04,1633.17C1974.04,1660.86 1951.56,1683.33 1923.88,1683.33L1714.82,1683.33L1714.82,1633.17L1898.79,1633.17C1912.64,1633.17 1923.88,1621.93 1923.88,1608.09L1923.88,1424.11L1974.04,1424.11ZM1229.97,1683.33L1020.91,1683.33C993.222,1683.33 970.744,1660.86 970.744,1633.17L970.744,1424.11L1020.91,1424.11L1020.91,1608.09C1020.91,1621.93 1032.15,1633.17 1045.99,1633.17L1229.97,1633.17L1229.97,1683.33Z" style="fill:rgb(255,0,0);"/>
        </g>
    </g>
</svg>
