<?xml version="1.0" encoding="UTF-8" standalone="no"?>
<!DOCTYPE svg PUBLIC "-//W3C//DTD SVG 1.1//EN" "http://www.w3.org/Graphics/SVG/1.1/DTD/svg11.dtd">
<svg width="100%" height="100%" viewBox="0 0 591 591" version="1.1" xmlns="http://www.w3.org/2000/svg" xmlns:xlink="http://www.w3.org/1999/xlink" xml:space="preserve" xmlns:serif="http://www.serif.com/" style="fill-rule:evenodd;clip-rule:evenodd;stroke-linecap:round;stroke-linejoin:round;stroke-miterlimit:1.5;">
    <g transform="matrix(0.324539,0,0,0.311264,-68.1604,-193.612)">
        <path d="M970.744,939.262L970.744,730.201C970.744,702.514 993.222,680.036 1020.91,680.036L1229.97,680.036L1229.97,730.201L1045.99,730.201C1032.15,730.201 1020.91,741.44 1020.91,755.283L1020.91,939.262L970.744,939.262ZM1714.82,680.036L1923.88,680.036C1951.56,680.036 1974.04,702.514 1974.04,730.201L1974.04,939.262L1923.88,939.262L1923.88,755.283C1923.88,741.44 1912.64,730.201 1898.79,730.201L1714.82,730.201L1714.82,680.036ZM1974.04,1424.11L1974.04,1633.17C1974.04,1660.86 1951.56,1683.33 1923.88,1683.33L1714.82,1683.33L1714.82,1633.17L1898.79,1633.17C1912.64,1633.17 1923.88,1621.93 1923.88,1608.09L1923.88,1424.11L1974.04,1424.11ZM1229.97,1683.33L1020.91,1683.33C993.222,1683.33 970.744,1660.86 970.744,1633.17L970.744,1424.11L1020.91,1424.11L1020.91,1608.09C1020.91,1621.93 1032.15,1633.17 1045.99,1633.17L1229.97,1633.17L1229.97,1683.33Z"/>
    </g>
    <g transform="matrix(1.07327,0.289964,-0.289964,1.07327,379.894,-983.458)">
        <g transform="matrix(0.970276,-5.55112e-17,0,-1,3.10183,2388.3)">
            <path d="M135.708,1066.84C179.884,1049.37 325.655,1175.04 325.655,1229.34C325.655,1290.39 276.089,1339.95 215.039,1339.95C153.988,1339.95 104.422,1290.39 104.422,1229.34C104.422,1175.04 101.421,1080.41 135.708,1066.84Z"/>
        </g>
        <g transform="matrix(0.927667,0.321961,-0.32788,0.94472,411.236,24.3626)">
            <ellipse cx="168.359" cy="1272.48" rx="21.845" ry="23.194" style="fill:white;"/>
        </g>
        <g transform="matrix(1.13278,0.552886,-0.534812,1.09575,575.037,-244.399)">
            <ellipse cx="226.442" cy="1153.41" rx="66.37" ry="64.263" style="stroke:white;stroke-width:2.52px;"/>
        </g>
    </g>
    <g transform="matrix(0.627256,-0.627256,0.950395,0.950395,-1411.15,-743.23)">
        <path d="M109.224,1459.15L109.224,1467.83L109.224,1441.13L109.224,1449.81L200.617,1449.81L200.617,1441.13L235.067,1454.48L200.617,1467.83L200.617,1459.15L109.224,1459.15Z"/>
    </g>
</svg>
