<?xml version="1.0" encoding="UTF-8" standalone="no"?>
<!DOCTYPE svg PUBLIC "-//W3C//DTD SVG 1.1//EN" "http://www.w3.org/Graphics/SVG/1.1/DTD/svg11.dtd">
<svg width="100%" height="100%" viewBox="0 0 1025 1830" version="1.1" xmlns="http://www.w3.org/2000/svg" xmlns:xlink="http://www.w3.org/1999/xlink" xml:space="preserve" xmlns:serif="http://www.serif.com/" style="fill-rule:evenodd;clip-rule:evenodd;stroke-linejoin:round;stroke-miterlimit:2;">
    <g id="CAW-Eckenelement-350x260px-RGB.afpub" serif:id="CAW Eckenelement 350x260px RGB.afpub" transform="matrix(2.07449,-2.54052e-16,2.54052e-16,2.07449,661.216,1559.61)">
        <g transform="matrix(1,0,0,1,-175,-130)">
            <clipPath id="_clip1">
                <rect x="0" y="0" width="350" height="260"/>
            </clipPath>
            <g clip-path="url(#_clip1)">
                <g transform="matrix(0.844195,3.28542e-19,-3.28542e-19,-0.841512,-527.432,230.186)">
                    <rect x="624.775" y="-35.429" width="414.596" height="308.968" style="fill:none;"/>
                    <clipPath id="_clip2">
                        <rect x="624.775" y="-35.429" width="414.596" height="308.968"/>
                    </clipPath>
                    <g clip-path="url(#_clip2)">
                        <g>
                            <g transform="matrix(4.16667,1.62674e-18,1.62674e-18,4.17995,689.428,-15.1978)">
                                <path d="M0,-49.468C-8.294,-70.796 -10.909,-92.998 -8.601,-114.563C-21.591,-80.888 -22.347,-43.716 -8.616,-8.409C9.198,37.399 47.648,63.231 94.901,65.095C74.87,51.947 58.18,33.903 46.902,11.822C26.317,-3.471 9.813,-24.235 0,-49.468" style="fill:rgb(225,68,5);fill-rule:nonzero;"/>
                            </g>
                            <g transform="matrix(4.16667,1.62674e-18,1.62674e-18,4.17995,1685.02,260.427)">
                                <path d="M0,-60.102C-12.487,-50.126 -26.721,-41.781 -42.516,-35.638C-95.138,-15.174 -151.518,-24.012 -192.039,-54.118C-180.763,-32.037 -164.071,-13.993 -144.04,-0.843C-122.764,0 -99.706,-4.011 -75.939,-13.254C-45.982,-24.904 -17.176,-43.106 0,-60.102" style="fill:rgb(255,132,0);fill-rule:nonzero;"/>
                            </g>
                            <g transform="matrix(4.16667,1.62674e-18,1.62674e-18,4.17995,884.855,-989.69)">
                                <path d="M0,244.957C-2.118,240.809 -4.061,236.532 -5.782,232.106C-34.913,157.195 5.796,71.451 85.146,40.594C105.457,32.696 126.324,29.186 146.63,29.55C128.936,5.878 95.328,0 50.357,17.488C-1.94,37.825 -38.818,75.312 -55.504,118.571C-57.811,140.137 -55.196,162.339 -46.902,183.667C-37.089,208.901 -20.585,229.663 0,244.957" style="fill:rgb(255,132,0);fill-rule:nonzero;"/>
                            </g>
                            <g transform="matrix(4.16667,1.62674e-18,1.62674e-18,4.17995,1367.29,-300.804)">
                                <path d="M0,-16.529C-3.566,-12.59 -10.686,-6.548 -20.177,-2.856C-29.352,0.711 -37.187,-3.523 -41.123,-13.645C-46.906,-28.516 -37.855,-45.511 -7.538,-51.837L0,-16.529ZM72.094,18.078C53.428,38.446 19.999,60.187 -11.002,72.242C-60.986,91.681 -104.042,72.738 -120.528,30.341C-140.828,-21.857 -111.319,-75.214 -56.274,-96.619C-33.496,-105.477 -19.033,-101.993 -14.007,-87.196L-13.46,-84.857C-70.879,-72.367 -110.299,-30.447 -92.093,16.369C-79.422,48.954 -44.097,52.7 -17.521,42.366C13.479,30.311 40.81,6.936 62.832,-15.105L42.551,-108.462C40.259,-118.987 36.299,-127.957 30.844,-135.258C10.538,-135.621 -10.329,-132.112 -30.639,-124.214C-109.989,-93.357 -150.699,-7.612 -121.566,67.298C-119.846,71.725 -117.903,76.001 -115.785,80.15C-75.264,110.254 -18.883,119.092 33.738,98.629C49.533,92.487 63.767,84.141 76.253,74.165C78.665,71.78 80.854,69.415 82.778,67.099L72.094,18.078Z" style="fill:rgb(255,209,0);fill-rule:nonzero;"/>
                            </g>
                            <g transform="matrix(1,3.90418e-19,3.90418e-19,1.00319,2.17531e-35,0.112948)">
                                <rect x="930.99" y="-35.429" width="108.381" height="64.513" style="fill:rgb(255,209,0);"/>
                            </g>
                        </g>
                    </g>
                </g>
            </g>
        </g>
    </g>
</svg>
